<svg width="100" height="100" xmlns="http://www.w3.org/2000/svg"><path fill="none" stroke="#000" stroke-width=".619" d="M16.786 58.697h66.428M16.786 41.303h66.428M8.162 50 50 8.346 91.838 50 50 91.654ZM.94 50 50 1.154 99.061 50 50 98.846Z"/><path d="M52.03 17.988a3.357 4.06 30 0 0-4.937 1.836 3.357 4.06 30 0 0 .27 4.714c.04-.479.148-1.048.462-1.57.38-.63 1.267-1.202 2.131-1.79.432-.293.858-.583 1.2-.854.343-.272.6-.534.697-.718.295-.558.257-1.165.19-1.61a3.357 4.06 30 0 0-.013-.008zm.545.415c.012.448-.032.96-.284 1.436-.164.31-.463.583-.827.872-.364.288-.796.584-1.228.878-.864.587-1.732 1.208-1.988 1.634-.37.614-.41 1.25-.401 1.715a3.357 4.06 30 0 0 .123.082 3.357 4.06 30 0 0 4.936-1.84 3.357 4.06 30 0 0-.33-4.777z"/><g font-weight="300" font-family="'Roboto Condensed'" letter-spacing="0" word-spacing="0" text-anchor="middle"><g aria-label="HIPSTER" style="font-size:14px;line-height:125%;-inkscape-font-specification:'Roboto Condensed, Light';text-align:center"><path d="M22.168 45.239h-.786v-4.765h-4.676v4.765h-.78v-9.954h.78v4.464h4.676v-4.464h.786zM25.646 45.239h-.78v-9.954h.78zM29.11 41.192v4.047h-.779v-9.954h2.892q1.32 0 2.078.793.759.793.759 2.181 0 1.415-.739 2.174-.731.759-2.112.759zm0-.732h2.113q.984 0 1.517-.567.54-.574.54-1.62 0-1.046-.546-1.648-.54-.601-1.504-.601h-2.12zM40.744 42.791q0-.834-.479-1.312-.471-.479-1.77-.916-1.299-.438-1.907-.978-.8-.704-.8-1.86 0-1.14.786-1.858.786-.718 2.03-.718 1.272 0 2.078.834.807.834.807 2.146h-.786q0-1.005-.568-1.62-.56-.622-1.53-.622-.944 0-1.491.513-.54.506-.54 1.312 0 .752.513 1.23.512.48 1.633.855 1.122.37 1.696.773.574.396.847.936.274.54.274 1.272 0 1.169-.793 1.886-.786.711-2.085.711-.875 0-1.6-.355-.717-.362-1.128-1.032-.403-.677-.403-1.593h.78q0 1.053.635 1.654.636.602 1.716.602.943 0 1.51-.506.575-.506.575-1.354zM49.192 36.024h-2.83v9.215h-.787v-9.215h-2.823v-.739h6.44zM55.623 40.474H51.76v4.04h4.443v.725H50.98v-9.954h5.189v.739h-4.41v3.725h3.863zM61.227 41.096h-2.324v4.143h-.786v-9.954h2.727q1.36 0 2.106.78.752.772.752 2.153 0 .964-.465 1.695-.465.725-1.251 1.005l2.071 4.232v.089h-.834Zm-2.324-.725h2.078q.882 0 1.408-.601.526-.609.526-1.552 0-1.046-.546-1.62-.547-.574-1.532-.574h-1.934z" style="letter-spacing:.19" transform="matrix(1.2385 0 0 1.2385 .46 .46)"/></g><g aria-label="COFFEE" style="font-size:10px;line-height:125%;-inkscape-font-specification:'Roboto Condensed, Light';text-align:center"><path d="M36.78 67.387q-.096 1.481-.798 2.177-.701.69-1.941.69-1.276 0-2.014-.962-.738-.968-.744-2.625v-1.91q0-1.664.75-2.607.756-.944 2.062-.944 1.234 0 1.911.708.678.707.774 2.17h-.701q-.097-1.196-.569-1.71-.465-.515-1.415-.515-.997 0-1.554.744-.556.744-.556 2.16v1.886q0 1.403.538 2.183.538.78 1.518.78 1.028 0 1.488-.514.46-.514.55-1.711zM43.965 66.685q0 1.706-.75 2.637-.744.931-2.093.931-1.336 0-2.098-.931-.756-.931-.762-2.619v-1.917q0-1.699.756-2.636.756-.944 2.092-.944 1.355 0 2.105.944.75.943.75 2.655zm-.696-1.91q0-1.446-.556-2.172-.556-.725-1.603-.725-1.01 0-1.578.713-.568.708-.58 2.123v1.971q0 1.452.574 2.183.574.726 1.596.726 1.053 0 1.597-.726.55-.725.55-2.183zM49.885 66.032H46.5v4.1h-.69v-8.805h4.584v.653H46.5v3.4h3.386zM55.957 66.032H52.57v4.1h-.69v-8.805h4.585v.653H52.57v3.4h3.387zM62.058 65.917h-3.416v3.574h3.93v.641h-4.62v-8.805h4.59v.653h-3.9v3.296h3.416zM68.215 65.917h-3.417v3.574h3.93v.641h-4.62v-8.805h4.59v.653h-3.9v3.296h3.417z"/></g><g aria-label="GENERIC" style="font-size:10px;line-height:125%;-inkscape-font-specification:'Roboto Condensed, Light';text-align:center"><path d="M28.003 30.09q-.357.46-.899.694-.542.229-1.186.229-1.094 0-1.719-.732-.625-.733-.65-2.032v-1.728q0-1.362.592-2.085.595-.728 1.694-.728.981 0 1.538.542t.625 1.563h-.557q-.088-.82-.483-1.196-.39-.381-1.118-.381-.87 0-1.304.58-.43.577-.43 1.695v1.64q0 1.114.474 1.73.478.614 1.338.614.932 0 1.523-.59v-1.851h-1.557v-.522h2.119zM32.63 27.512H29.87v2.886h3.174v.517h-3.73v-7.109h3.705v.527h-3.149v2.661h2.759zM38.468 30.915h-.557l-3.354-6.054v6.054h-.562v-7.109h.562l3.359 6.064v-6.064h.552zM43.183 27.512h-2.76v2.886h3.175v.517h-3.73v-7.109h3.705v.527h-3.15v2.661h2.76zM46.76 27.956H45.1v2.96h-.562v-7.11h1.948q.972 0 1.504.557.537.551.537 1.538 0 .688-.332 1.21-.332.518-.893.718l1.48 3.023v.063h-.596zm-1.66-.517h1.484q.63 0 1.006-.43.376-.434.376-1.108 0-.747-.39-1.158-.391-.41-1.095-.41H45.1zM50.415 30.915h-.557v-7.109h.557zM56.17 28.699q-.078 1.196-.644 1.757-.567.557-1.568.557-1.03 0-1.626-.776-.596-.782-.6-2.12v-1.542q0-1.343.605-2.105.61-.762 1.665-.762.996 0 1.543.572.547.57.625 1.753h-.566q-.078-.967-.46-1.382-.375-.415-1.142-.415-.806 0-1.255.6-.449.6-.449 1.743v1.524q0 1.133.435 1.763.434.63 1.225.63.83 0 1.201-.416.371-.415.445-1.381z" style="letter-spacing:-.29" transform="matrix(1.2385 0 0 1.2385 .46 .46)"/></g><g aria-label="EST. 2010" style="font-size:3.33333px;line-height:125%;-inkscape-font-specification:'Roboto Condensed, Light';text-align:center"><path d="M43.754 77.68h-1.14v1.192h1.311v.214h-1.54V76.15h1.53v.217h-1.3v1.099h1.139zM45.816 78.364q0-.246-.141-.387-.14-.141-.522-.27-.383-.13-.563-.288-.236-.208-.236-.549 0-.336.232-.548.232-.212.599-.212.375 0 .613.246t.238.633h-.232q0-.296-.168-.478-.165-.183-.451-.183-.278 0-.44.151-.159.15-.159.387 0 .222.151.363.152.141.482.252.33.109.5.228.17.117.25.276.08.16.08.375 0 .345-.233.556-.232.21-.615.21-.258 0-.472-.105-.211-.107-.332-.304-.12-.2-.12-.47h.23q0 .31.188.488.188.177.506.177.278 0 .445-.149.17-.15.17-.4zM48.25 76.368h-.834v2.718h-.231v-2.718h-.833v-.217h1.899zM48.229 78.938q0-.072.044-.12.046-.05.127-.05.08 0 .127.05.046.048.046.12 0 .071-.046.117-.046.047-.127.047-.08 0-.127-.047-.044-.046-.044-.117zM51.674 79.086h-1.556v-.19l.834-1.127q.21-.288.292-.477.083-.19.083-.371 0-.277-.133-.438-.131-.163-.365-.163-.248 0-.395.19-.147.187-.147.487h-.224q0-.383.212-.635.211-.252.554-.252.335 0 .53.21.196.208.196.578 0 .353-.319.825l-.129.185-.717.97h1.284zM53.623 77.86q0 .625-.194.945-.191.32-.566.32-.37 0-.566-.318-.194-.32-.198-.923v-.516q0-.613.192-.935.191-.323.568-.323.37 0 .564.313.194.31.2.907zm-.226-.524q0-.504-.135-.76-.133-.256-.403-.256-.26 0-.397.246-.135.244-.141.728v.594q0 .492.137.762.139.268.405.268.258 0 .393-.254.137-.256.141-.75zM55.092 79.086h-.225v-2.64l-.663.297v-.23l.85-.372h.039zM57.638 77.86q0 .625-.193.945-.192.32-.567.32-.37 0-.566-.318-.193-.32-.197-.923v-.516q0-.613.191-.935.192-.323.568-.323.371 0 .565.313.193.31.2.907zm-.225-.524q0-.504-.135-.76-.133-.256-.404-.256-.26 0-.397.246-.135.244-.14.728v.594q0 .492.136.762.14.268.405.268.259 0 .394-.254.137-.256.14-.75z"/></g></g></svg>