<svg xmlns="http://www.w3.org/2000/svg" viewBox="0 0 100 100"><path fill="none" stroke="#000" stroke-width=".62" d="M16.79 58.7H83.2M16.8 41.3h66.4M8.16 50 50 8.35 91.84 50 50 91.65ZM.94 50 50 1.15 99.06 50 50 98.85Z"/><path d="M52.03 17.99a3.36 4.06 30 0 0-4.94 1.83 3.36 4.06 30 0 0 .27 4.72 3.6 3.6 0 0 1 .47-1.57c.37-.63 1.26-1.2 2.13-1.8.43-.29.85-.57 1.2-.85a3 3 0 0 0 .7-.71 2.6 2.6 0 0 0 .18-1.61 3.36 4.06 30 0 0-.01-.01zm.55.41c0 .45-.04.96-.29 1.44-.16.3-.46.58-.83.87-.36.29-.8.58-1.22.88a8.29 8.29 0 0 0-2 1.63 3.12 3.12 0 0 0-.4 1.72 3.36 4.06 30 0 0 .13.08 3.36 4.06 30 0 0 4.94-1.84 3.36 4.06 30 0 0-.33-4.78z"/><g font-family="'Roboto Condensed'" font-weight="300" letter-spacing="0" text-anchor="middle" word-spacing="0"><g style="font-size:14px;line-height:125%;-inkscape-font-specification:'Roboto Condensed, Light';text-align:center"><path d="M22.17 45.24h-.79v-4.77h-4.67v4.77h-.78v-9.95h.78v4.46h4.67v-4.46h.79zm3.48 0h-.78v-9.95h.78zm3.46-4.04v4.04h-.78v-9.95h2.9q1.31 0 2.07.79.76.8.76 2.18 0 1.41-.74 2.17-.73.76-2.11.76zm0-.74h2.11q.99 0 1.52-.57.54-.57.54-1.62 0-1.04-.55-1.64-.54-.6-1.5-.6h-2.12zm11.63 2.34q0-.84-.47-1.32-.48-.48-1.78-.92-1.3-.43-1.9-.97-.8-.7-.8-1.86 0-1.15.78-1.86.79-.72 2.03-.72 1.28 0 2.08.83.8.84.8 2.15h-.78q0-1-.56-1.62-.57-.62-1.54-.62-.94 0-1.49.51-.54.5-.54 1.31 0 .75.52 1.23.5.48 1.63.86 1.12.37 1.7.77.57.4.84.94.28.54.28 1.27 0 1.17-.8 1.88-.78.72-2.08.72-.88 0-1.6-.36-.72-.36-1.13-1.03-.4-.68-.4-1.6h.78q0 1.06.63 1.66.64.6 1.72.6.94 0 1.51-.5.57-.51.57-1.36zm8.46-6.78h-2.84v9.22h-.78v-9.22h-2.83v-.73h6.44zm6.42 4.45h-3.86v4.04h4.44v.73h-5.22v-9.95h5.19v.73h-4.4v3.73h3.85zm5.61.63H58.9v4.14h-.78v-9.95h2.72q1.36 0 2.11.77.75.78.75 2.16 0 .96-.46 1.7-.47.72-1.25 1l2.07 4.23v.09h-.84Zm-2.33-.73h2.08q.88 0 1.4-.6.54-.6.54-1.55 0-1.05-.55-1.62-.55-.58-1.53-.58H58.9z" aria-label="HIPSTER" style="letter-spacing:.19" transform="translate(.46 .46) scale(1.2385)"/></g><path d="M36.78 67.39q-.1 1.48-.8 2.17-.7.7-1.94.7-1.28 0-2.01-.97-.74-.97-.75-2.62v-1.91q0-1.67.75-2.61.76-.94 2.07-.94 1.23 0 1.9.7.68.71.78 2.17h-.7q-.1-1.2-.57-1.7-.47-.52-1.41-.52-1 0-1.56.74-.56.75-.56 2.16v1.89q0 1.4.54 2.18.54.78 1.52.78 1.03 0 1.49-.51.46-.52.55-1.71zm7.18-.7q0 1.7-.75 2.63-.74.93-2.09.93-1.33 0-2.1-.93-.75-.93-.76-2.62v-1.9q0-1.7.76-2.64.75-.94 2.09-.94 1.35 0 2.1.94t.75 2.65zm-.7-1.92q0-1.44-.55-2.17-.55-.72-1.6-.72-1.01 0-1.58.71-.57.7-.58 2.12v1.98q0 1.45.58 2.18.57.72 1.6.72 1.04 0 1.59-.72.55-.73.55-2.18zm6.63 1.26h-3.4v4.1h-.68v-8.8h4.58v.65h-3.9v3.4h3.4zm6.07 0h-3.39v4.1h-.69v-8.8h4.58v.65h-3.89v3.4h3.39zm6.1-.11h-3.42v3.57h3.93v.64h-4.62v-8.8h4.6v.65h-3.9v3.3h3.4zm6.15 0H64.8v3.57h3.93v.64H64.1v-8.8h4.59v.65h-3.9v3.3h3.41z" aria-label="COFFEE" style="font-size:10px;line-height:125%;-inkscape-font-specification:'Roboto Condensed, Light';text-align:center"/><g style="font-size:10px;line-height:125%;-inkscape-font-specification:'Roboto Condensed, Light';text-align:center"><path d="M28 30.09q-.35.46-.9.7-.54.22-1.18.22-1.1 0-1.72-.73-.63-.73-.65-2.03v-1.73q0-1.36.6-2.08.59-.73 1.68-.73.99 0 1.54.54.56.54.63 1.56h-.56q-.09-.82-.48-1.2-.4-.37-1.12-.37-.87 0-1.3.58-.43.57-.43 1.7v1.63q0 1.11.47 1.73.48.62 1.34.62.93 0 1.52-.6v-1.85h-1.56v-.52H28zm4.63-2.58h-2.76v2.89h3.17v.52h-3.73V23.8h3.71v.52h-3.15V27h2.76zm5.84 3.41h-.56l-3.35-6.06v6.06H34V23.8h.56l3.36 6.06V23.8h.55zm4.71-3.41h-2.76v2.89h3.18v.52h-3.73V23.8h3.7v.52h-3.15V27h2.76zm3.58.45H45.1v2.96h-.56V23.8h1.95q.97 0 1.5.55.54.55.54 1.54 0 .69-.33 1.21-.34.52-.9.72l1.48 3.02v.07h-.6zm-1.66-.52h1.48q.63 0 1.01-.43.38-.44.38-1.1 0-.76-.4-1.17-.39-.4-1.09-.4H45.1zm5.32 3.48h-.56V23.8h.56zm5.75-2.22q-.08 1.2-.64 1.76-.57.55-1.57.55-1.03 0-1.63-.77-.6-.78-.6-2.12v-1.55q0-1.34.6-2.1.62-.76 1.67-.76 1 0 1.55.57.54.57.62 1.75h-.57q-.07-.96-.46-1.38-.37-.41-1.14-.41-.8 0-1.25.6-.45.6-.45 1.74v1.52q0 1.14.43 1.77.44.63 1.23.63.83 0 1.2-.42.37-.41.44-1.38z" aria-label="GENERIC" style="letter-spacing:-.29" transform="translate(.46 .46) scale(1.2385)"/></g><text x="39.97" y="63.48" font-size="3.33" style="line-height:125%;-inkscape-font-specification:'Roboto Condensed, Light';font-variant-ligatures:normal;font-variant-caps:normal;font-variant-numeric:normal;font-feature-settings:normal;text-align:center" transform="translate(.46 .46) scale(1.2385)"><tspan x="39.97" y="63.48" style="-inkscape-font-specification:'Roboto Condensed, Light';font-variant-ligatures:normal;font-variant-caps:normal;font-variant-numeric:normal;font-feature-settings:normal;text-align:center">EST. 2010</tspan></text></g></svg>